<svg width="210" height="297" viewBox="0 0 210 297" xmlns="http://www.w3.org/2000/svg">
  <rect width="210" height="297" fill="#ffffff" rx="4"/>
  <circle cx="105" cy="22" r="12" fill="#e5e7eb"/>
  <rect x="35" y="38" width="140" height="4" fill="#0f172a" rx="1"/>
  <rect x="45" y="46" width="120" height="3" fill="#475569" rx="1"/>
  <rect x="15" y="58" width="50" height="3" fill="#0f172a" rx="1"/>
  <rect x="15" y="65" width="180" height="1" fill="#d1d5db" stroke-dasharray="3,2"/>
  <rect x="15" y="72" width="130" height="2" fill="#6b7280" rx="1"/>
  <rect x="15" y="78" width="140" height="2" fill="#6b7280" rx="1"/>
  <rect x="15" y="84" width="120" height="2" fill="#6b7280" rx="1"/>
  <rect x="15" y="94" width="50" height="3" fill="#0f172a" rx="1"/>
  <rect x="15" y="101" width="180" height="1" fill="#d1d5db" stroke-dasharray="3,2"/>
  <rect x="15" y="108" width="130" height="2" fill="#6b7280" rx="1"/>
  <rect x="15" y="114" width="140" height="2" fill="#6b7280" rx="1"/>
  <rect x="15" y="120" width="120" height="2" fill="#6b7280" rx="1"/>
  <rect x="15" y="130" width="50" height="3" fill="#0f172a" rx="1"/>
  <rect x="15" y="137" width="180" height="1" fill="#d1d5db" stroke-dasharray="3,2"/>
  <rect x="15" y="144" width="130" height="2" fill="#6b7280" rx="1"/>
  <rect x="15" y="150" width="140" height="2" fill="#6b7280" rx="1"/>
  <rect x="15" y="156" width="120" height="2" fill="#6b7280" rx="1"/>
  <rect x="15" y="166" width="50" height="3" fill="#0f172a" rx="1"/>
  <rect x="15" y="173" width="180" height="1" fill="#d1d5db" stroke-dasharray="3,2"/>
  <rect x="15" y="180" width="130" height="2" fill="#6b7280" rx="1"/>
  <rect x="15" y="186" width="140" height="2" fill="#6b7280" rx="1"/>
  <rect x="15" y="192" width="120" height="2" fill="#6b7280" rx="1"/>
  <rect x="15" y="202" width="50" height="3" fill="#0f172a" rx="1"/>
  <rect x="15" y="209" width="180" height="1" fill="#d1d5db" stroke-dasharray="3,2"/>
  <rect x="15" y="216" width="130" height="2" fill="#6b7280" rx="1"/>
  <rect x="15" y="222" width="140" height="2" fill="#6b7280" rx="1"/>
  <rect x="15" y="228" width="120" height="2" fill="#6b7280" rx="1"/>
  <rect x="15" y="238" width="50" height="3" fill="#0f172a" rx="1"/>
  <rect x="15" y="245" width="180" height="1" fill="#d1d5db" stroke-dasharray="3,2"/>
  <rect x="15" y="252" width="130" height="2" fill="#6b7280" rx="1"/>
  <rect x="15" y="258" width="140" height="2" fill="#6b7280" rx="1"/>
  <rect x="15" y="264" width="120" height="2" fill="#6b7280" rx="1"/>
  <rect x="15" y="274" width="50" height="3" fill="#0f172a" rx="1"/>
  <rect x="15" y="281" width="180" height="1" fill="#d1d5db" stroke-dasharray="3,2"/>
  <rect x="15" y="288" width="130" height="2" fill="#6b7280" rx="1"/>
</svg>
