<svg width="210" height="297" viewBox="0 0 210 297" xmlns="http://www.w3.org/2000/svg">
  <defs>
    <linearGradient id="grad" x1="0%" y1="0%" x2="100%" y2="100%">
      <stop offset="0%" style="stop-color:#6366f1;stop-opacity:1"/>
      <stop offset="100%" style="stop-color:#8b5cf6;stop-opacity:1"/>
    </linearGradient>
  </defs>
  <rect width="210" height="297" fill="#f8f9fa" rx="4"/>
  <rect x="8" y="8" width="194" height="65" rx="12" fill="url(#grad)"/>
  <circle cx="50" cy="40" r="14" fill="#ffffff" opacity="0.9"/>
  <rect x="72" y="30" width="100" height="5" fill="#ffffff" rx="1" opacity="0.95"/>
  <rect x="80" y="40" width="80" height="3" fill="#c7d2fe" rx="1"/>
  <rect x="8" y="82" width="194" height="45" rx="10" fill="#ffffff"/>
  <rect x="18" y="92" width="50" height="4" fill="#6366f1" rx="1"/>
  <rect x="18" y="102" width="170" height="3" fill="#d1d5db" rx="1"/>
  <rect x="18" y="110" width="160" height="3" fill="#d1d5db" rx="1"/>
  <rect x="8" y="136" width="194" height="45" rx="10" fill="#ffffff"/>
  <rect x="18" y="146" width="50" height="4" fill="#6366f1" rx="1"/>
  <rect x="18" y="156" width="170" height="3" fill="#d1d5db" rx="1"/>
  <rect x="18" y="164" width="160" height="3" fill="#d1d5db" rx="1"/>
  <rect x="8" y="190" width="194" height="45" rx="10" fill="#ffffff"/>
  <rect x="18" y="200" width="50" height="4" fill="#6366f1" rx="1"/>
  <rect x="18" y="210" width="170" height="3" fill="#d1d5db" rx="1"/>
  <rect x="18" y="218" width="160" height="3" fill="#d1d5db" rx="1"/>
  <rect x="8" y="244" width="194" height="45" rx="10" fill="#ffffff"/>
  <rect x="18" y="254" width="50" height="4" fill="#6366f1" rx="1"/>
  <rect x="18" y="264" width="170" height="3" fill="#d1d5db" rx="1"/>
  <rect x="18" y="272" width="160" height="3" fill="#d1d5db" rx="1"/>
</svg>
