<svg width="210" height="297" viewBox="0 0 210 297" xmlns="http://www.w3.org/2000/svg">
  <rect width="210" height="297" fill="#ffffff" rx="4"/>
  <rect x="0" y="0" width="73" height="297" fill="#000000"/>
  <circle cx="36" cy="25" r="12" fill="#6b7280"/>
  <rect x="14" y="42" width="44" height="4" fill="#ffffff" rx="1"/>
  <rect x="12" y="52" width="50" height="3" fill="#9ca3af" rx="1"/>
  <rect x="12" y="60" width="50" height="3" fill="#9ca3af" rx="1"/>
  <rect x="12" y="68" width="50" height="3" fill="#9ca3af" rx="1"/>
  <rect x="88" y="15" width="110" height="5" fill="#000000" rx="1"/>
  <rect x="88" y="25" width="100" height="3" fill="#6b7280" rx="1"/>
  <rect x="88" y="33" width="90" height="3" fill="#6b7280" rx="1"/>
  <rect x="88" y="41" width="105" height="3" fill="#6b7280" rx="1"/>
  <rect x="88" y="58" width="60" height="4" fill="#000000" rx="1"/>
  <rect x="88" y="68" width="110" height="3" fill="#9ca3af" rx="1"/>
  <rect x="88" y="76" width="100" height="3" fill="#9ca3af" rx="1"/>
  <rect x="88" y="84" width="110" height="3" fill="#9ca3af" rx="1"/>
  <rect x="88" y="100" width="60" height="4" fill="#000000" rx="1"/>
  <rect x="88" y="110" width="110" height="3" fill="#9ca3af" rx="1"/>
  <rect x="88" y="118" width="100" height="3" fill="#9ca3af" rx="1"/>
  <rect x="88" y="126" width="110" height="3" fill="#9ca3af" rx="1"/>
  <rect x="88" y="142" width="60" height="4" fill="#000000" rx="1"/>
  <rect x="88" y="152" width="110" height="3" fill="#9ca3af" rx="1"/>
  <rect x="88" y="160" width="100" height="3" fill="#9ca3af" rx="1"/>
  <rect x="88" y="168" width="110" height="3" fill="#9ca3af" rx="1"/>
  <rect x="88" y="184" width="60" height="4" fill="#000000" rx="1"/>
  <rect x="88" y="194" width="110" height="3" fill="#9ca3af" rx="1"/>
  <rect x="88" y="202" width="100" height="3" fill="#9ca3af" rx="1"/>
  <rect x="88" y="210" width="110" height="3" fill="#9ca3af" rx="1"/>
  <rect x="88" y="226" width="60" height="4" fill="#000000" rx="1"/>
  <rect x="88" y="236" width="110" height="3" fill="#9ca3af" rx="1"/>
  <rect x="88" y="244" width="100" height="3" fill="#9ca3af" rx="1"/>
</svg>
