<svg width="210" height="297" viewBox="0 0 210 297" xmlns="http://www.w3.org/2000/svg">
  <rect width="210" height="297" fill="#ffffff" rx="4"/>
  <rect x="25" y="0" width="160" height="297" fill="#ffffff"/>
  <circle cx="105" cy="30" r="16" fill="#e5e7eb"/>
  <rect x="60" y="52" width="90" height="6" fill="#374151" rx="1"/>
  <rect x="70" y="62" width="70" height="4" fill="#6b7280" rx="1"/>
  <rect x="25" y="82" width="160" height="1" fill="#e5e7eb"/>
  <rect x="25" y="92" width="55" height="4" fill="#374151" rx="1"/>
  <rect x="25" y="102" width="160" height="1" fill="#e5e7eb"/>
  <rect x="25" y="110" width="140" height="3" fill="#9ca3af" rx="1"/>
  <rect x="25" y="118" width="150" height="3" fill="#9ca3af" rx="1"/>
  <rect x="25" y="126" width="130" height="3" fill="#9ca3af" rx="1"/>
  <rect x="25" y="140" width="55" height="4" fill="#374151" rx="1"/>
  <rect x="25" y="150" width="160" height="1" fill="#e5e7eb"/>
  <rect x="25" y="158" width="140" height="3" fill="#9ca3af" rx="1"/>
  <rect x="25" y="166" width="150" height="3" fill="#9ca3af" rx="1"/>
  <rect x="25" y="174" width="130" height="3" fill="#9ca3af" rx="1"/>
  <rect x="25" y="188" width="55" height="4" fill="#374151" rx="1"/>
  <rect x="25" y="198" width="160" height="1" fill="#e5e7eb"/>
  <rect x="25" y="206" width="140" height="3" fill="#9ca3af" rx="1"/>
  <rect x="25" y="214" width="150" height="3" fill="#9ca3af" rx="1"/>
  <rect x="25" y="228" width="55" height="4" fill="#374151" rx="1"/>
  <rect x="25" y="238" width="160" height="1" fill="#e5e7eb"/>
  <rect x="25" y="246" width="140" height="3" fill="#9ca3af" rx="1"/>
  <rect x="25" y="254" width="150" height="3" fill="#9ca3af" rx="1"/>
  <rect x="25" y="268" width="55" height="4" fill="#374151" rx="1"/>
  <rect x="25" y="278" width="160" height="1" fill="#e5e7eb"/>
  <rect x="25" y="286" width="140" height="3" fill="#9ca3af" rx="1"/>
</svg>
