<svg width="210" height="297" viewBox="0 0 210 297" xmlns="http://www.w3.org/2000/svg">
  <rect width="210" height="297" fill="#ffffff" rx="4"/>
  <circle cx="30" cy="35" r="14" fill="#e5e7eb"/>
  <rect x="52" y="28" width="100" height="6" fill="#18181b" rx="1"/>
  <rect x="52" y="38" width="80" height="4" fill="#64748b" rx="1"/>
  <rect x="20" y="58" width="170" height="1" fill="#e5e7eb"/>
  <circle cx="25" cy="68" r="3" fill="#18181b"/>
  <line x1="25" y1="68" x2="25" y2="95" stroke="#18181b" stroke-width="1"/>
  <rect x="35" y="64" width="60" height="4" fill="#18181b" rx="1"/>
  <rect x="35" y="74" width="155" height="3" fill="#9ca3af" rx="1"/>
  <rect x="35" y="82" width="145" height="3" fill="#9ca3af" rx="1"/>
  <rect x="35" y="90" width="155" height="3" fill="#9ca3af" rx="1"/>
  <circle cx="25" cy="105" r="3" fill="#18181b"/>
  <line x1="25" y1="105" x2="25" y2="132" stroke="#18181b" stroke-width="1"/>
  <rect x="35" y="101" width="60" height="4" fill="#18181b" rx="1"/>
  <rect x="35" y="111" width="155" height="3" fill="#9ca3af" rx="1"/>
  <rect x="35" y="119" width="145" height="3" fill="#9ca3af" rx="1"/>
  <rect x="35" y="127" width="155" height="3" fill="#9ca3af" rx="1"/>
  <circle cx="25" cy="142" r="3" fill="#18181b"/>
  <line x1="25" y1="142" x2="25" y2="169" stroke="#18181b" stroke-width="1"/>
  <rect x="35" y="138" width="60" height="4" fill="#18181b" rx="1"/>
  <rect x="35" y="148" width="155" height="3" fill="#9ca3af" rx="1"/>
  <rect x="35" y="156" width="145" height="3" fill="#9ca3af" rx="1"/>
  <rect x="35" y="164" width="155" height="3" fill="#9ca3af" rx="1"/>
  <circle cx="25" cy="179" r="3" fill="#18181b"/>
  <line x1="25" y1="179" x2="25" y2="206" stroke="#18181b" stroke-width="1"/>
  <rect x="35" y="175" width="60" height="4" fill="#18181b" rx="1"/>
  <rect x="35" y="185" width="155" height="3" fill="#9ca3af" rx="1"/>
  <rect x="35" y="193" width="145" height="3" fill="#9ca3af" rx="1"/>
  <rect x="35" y="201" width="155" height="3" fill="#9ca3af" rx="1"/>
  <circle cx="25" cy="216" r="3" fill="#18181b"/>
  <line x1="25" y1="216" x2="25" y2="243" stroke="#18181b" stroke-width="1"/>
  <rect x="35" y="212" width="60" height="4" fill="#18181b" rx="1"/>
  <rect x="35" y="222" width="155" height="3" fill="#9ca3af" rx="1"/>
  <rect x="35" y="230" width="145" height="3" fill="#9ca3af" rx="1"/>
  <rect x="35" y="238" width="155" height="3" fill="#9ca3af" rx="1"/>
  <circle cx="25" cy="253" r="3" fill="#18181b"/>
  <rect x="35" y="249" width="60" height="4" fill="#18181b" rx="1"/>
  <rect x="35" y="259" width="155" height="3" fill="#9ca3af" rx="1"/>
  <rect x="35" y="267" width="145" height="3" fill="#9ca3af" rx="1"/>
  <rect x="35" y="275" width="155" height="3" fill="#9ca3af" rx="1"/>
</svg>
